<svg width="74" height="24" viewBox="0 0 74 24" fill="none" xmlns="http://www.w3.org/2000/svg">
<path d="M22.2838 15.0109C22.9477 15.2965 23.2551 16.0678 22.9702 16.7334C22.5365 17.7471 21.9698 18.6866 21.2914 19.5308L23.0075 21.2518C23.5075 21.753 23.5075 22.5659 23.0075 23.0671C22.5076 23.5683 21.697 23.5683 21.1968 23.0671L19.4806 21.3464C18.6032 22.0552 17.6231 22.6424 16.5644 23.0835C15.8972 23.3615 15.1316 23.0444 14.8544 22.3754C14.5772 21.7064 14.8932 20.939 15.5604 20.661C16.2995 20.3532 16.9896 19.9542 17.6172 19.4776L15.8834 17.7392C15.3832 17.2377 15.3832 16.425 15.8834 15.9236C16.3833 15.4224 17.194 15.4224 17.6939 15.9236L19.4277 17.6622C19.8813 17.0613 20.2649 16.403 20.5659 15.699C20.8508 15.0334 21.62 14.7253 22.2838 15.0109Z" fill="#1C5BD9"/>
<path d="M10.1432 2.80344C11.9572 2.44165 13.8374 2.62733 15.5461 3.33703C17.2551 4.04673 18.7155 5.2486 19.743 6.79059C20.7705 8.33259 21.319 10.1456 21.319 12.0001C21.319 12.7245 21.9046 13.3116 22.627 13.3116C23.3497 13.3116 23.9353 12.7245 23.9353 12.0001C23.9353 9.62671 23.2333 7.30658 21.9184 5.33319C20.6033 3.35979 18.7342 1.82171 16.5475 0.913465C14.3606 0.00519608 11.9543 -0.232445 9.63284 0.230589C7.31136 0.693622 5.17894 1.83651 3.50524 3.51473C1.83153 5.19298 0.691732 7.33116 0.229952 9.65893C-0.231803 11.9868 0.00517403 14.3995 0.910987 16.5923C1.81677 18.7848 3.35071 20.659 5.31876 21.9778C7.28681 23.2963 9.60065 24 11.9676 24C12.69 24 13.2756 23.4129 13.2756 22.6884C13.2756 21.964 12.69 21.3768 11.9676 21.3768C10.1181 21.3768 8.31008 20.8268 6.77223 19.7965C5.2344 18.7662 4.03581 17.3017 3.32801 15.5883C2.62022 13.875 2.43503 11.9896 2.79585 10.1706C3.1567 8.35181 4.04732 6.68101 5.35515 5.36965C6.66296 4.05829 8.32923 3.16524 10.1432 2.80344Z" fill="#1C1C1C"/>
<path d="M31.9854 22.489C30.5012 22.489 29.3402 22.0617 28.5027 21.207C27.665 20.3378 27.2461 19.137 27.2461 17.6044V12.3883C27.2461 12.02 27.3563 11.7326 27.5767 11.5262C27.812 11.3201 28.1207 11.2168 28.5027 11.2168C28.8847 11.2168 29.1786 11.3201 29.3844 11.5262C29.6049 11.7326 29.7151 12.02 29.7151 12.3883V17.6044C29.7151 18.5181 29.9575 19.2326 30.4423 19.7484C30.9272 20.2494 31.6033 20.5 32.4702 20.5C33.5578 20.5 34.4247 20.1535 35.0714 19.461C35.7179 18.7536 36.0411 17.8034 36.0411 16.6099V12.3883C36.0411 12.02 36.1513 11.7326 36.3717 11.5262C36.5922 11.3201 36.8934 11.2168 37.2757 11.2168C37.6577 11.2168 37.959 11.3201 38.1794 11.5262C38.3998 11.7326 38.5101 12.02 38.5101 12.3883V21.3178C38.5101 21.686 38.407 21.9734 38.2014 22.1795C37.9956 22.3859 37.7017 22.489 37.3197 22.489C36.9376 22.489 36.6364 22.3859 36.416 22.1795C36.2101 21.9586 36.1073 21.6712 36.1073 21.3178V20.4557C35.0346 21.8113 33.6606 22.489 31.9854 22.489Z" fill="#1C1C1C"/>
<path d="M42.1269 22.489C41.7449 22.489 41.4437 22.3859 41.2232 22.1795C41.0028 21.9734 40.8926 21.686 40.8926 21.3178V12.3883C40.8926 12.02 40.9956 11.7326 41.2012 11.5262C41.4217 11.3201 41.7155 11.2168 42.083 11.2168C42.465 11.2168 42.7588 11.3201 42.9647 11.5262C43.1851 11.7326 43.2953 12.02 43.2953 12.3883V13.3165C44.2504 12.064 45.5068 11.438 47.0646 11.438H47.5715C47.9684 11.438 48.277 11.5262 48.4975 11.7032C48.7325 11.8799 48.8501 12.1231 48.8501 12.4325C48.8501 12.7567 48.7325 13.0071 48.4975 13.1841C48.277 13.3459 47.9684 13.427 47.5715 13.427H46.8662C45.7935 13.427 44.9411 13.7587 44.3093 14.4217C43.6774 15.07 43.3613 15.9614 43.3613 17.0961V21.3178C43.3613 21.6712 43.2439 21.9586 43.0087 22.1795C42.7882 22.3859 42.4944 22.489 42.1269 22.489Z" fill="#1C1C1C"/>
<path d="M55.3439 22.489C54.0802 22.489 52.978 22.268 52.0375 21.8259C51.1118 21.3692 50.3991 20.7209 49.8994 19.8809C49.4146 19.0411 49.1719 18.0466 49.1719 16.8971C49.1719 15.1142 49.701 13.7218 50.7591 12.7199C51.817 11.7178 53.2867 11.2168 55.1675 11.2168C56.3285 11.2168 57.3572 11.4012 58.2535 11.7694C59.1501 12.1379 59.8479 12.6534 60.3476 13.3165C60.8473 13.965 61.0971 14.7089 61.0971 15.549C61.0971 16.2266 60.8913 16.7498 60.4798 17.1181C60.0684 17.4866 59.4879 17.6707 58.7386 17.6707H51.5966C51.5966 18.5844 51.9198 19.2917 52.5666 19.7926C53.213 20.2936 54.139 20.5439 55.3439 20.5439C56.0346 20.5439 56.6445 20.4703 57.1734 20.323C57.7025 20.1757 58.1947 19.9399 58.6504 19.6157C59.0764 19.3357 59.3997 19.1958 59.6201 19.1958C59.8111 19.1958 60.0096 19.2988 60.2154 19.5052C60.4504 19.7262 60.5681 19.9693 60.5681 20.2345C60.5681 20.5145 60.4433 20.7503 60.1934 20.9419C58.9588 21.9734 57.3424 22.489 55.3439 22.489ZM57.9891 15.8804C58.2389 15.8804 58.4226 15.829 58.5402 15.7257C58.6576 15.6226 58.7164 15.4459 58.7164 15.1953C58.7164 14.591 58.3931 14.1049 57.7467 13.7364C57.1 13.3533 56.2402 13.1618 55.1675 13.1618C54.0802 13.1618 53.2204 13.4124 52.5886 13.9134C51.9567 14.3995 51.6409 15.0554 51.6409 15.8804H57.9891Z" fill="#1C1C1C"/>
<path d="M72.7539 20.6767C72.9598 20.9124 73.0626 21.1628 73.0626 21.4282C73.0626 21.7377 72.9304 22.0028 72.6657 22.2238C72.4601 22.4007 72.2397 22.489 72.0044 22.489C71.6666 22.489 71.3505 22.3342 71.0567 22.0248L67.662 18.3338L64.2676 22.0248C63.9735 22.3197 63.6577 22.467 63.3196 22.467C63.0404 22.467 62.8128 22.3859 62.6364 22.2238C62.3865 22.0177 62.2617 21.7522 62.2617 21.4282C62.2617 21.1334 62.3645 20.883 62.5701 20.6767L66.1852 16.7424L62.8348 13.0956C62.5995 12.8304 62.4822 12.5504 62.4822 12.2558C62.4822 11.9315 62.6069 11.6664 62.8568 11.46C63.0626 11.2979 63.2757 11.2168 63.4961 11.2168C63.8781 11.2168 64.2234 11.3863 64.532 11.7252L67.662 15.1291L70.792 11.7252C71.1007 11.3863 71.4313 11.2168 71.784 11.2168C72.0192 11.2168 72.2397 11.2979 72.4453 11.46C72.7099 11.6809 72.8422 11.9461 72.8422 12.2558C72.8422 12.5504 72.7245 12.8304 72.4895 13.0956L69.1391 16.7424L72.7539 20.6767Z" fill="#1C1C1C"/>
</svg>
